<?xml version="1.0" standalone="no"?><!DOCTYPE svg PUBLIC "-//W3C//DTD SVG 1.1//EN" "http://www.w3.org/Graphics/SVG/1.1/DTD/svg11.dtd"><svg t="1739860898318" class="icon" viewBox="0 0 1024 1024" version="1.1" xmlns="http://www.w3.org/2000/svg" p-id="12639" xmlns:xlink="http://www.w3.org/1999/xlink" width="200" height="200"><path d="M192 192h640a64 64 0 0 1 64 64v448a64 64 0 0 1-64 64h-132.970667l66.133334 64H832a128 128 0 0 0 128-128V256a128 128 0 0 0-128-128H192a128 128 0 0 0-128 128v448a128 128 0 0 0 128 128h88.170667l66.133333-64H192a64 64 0 0 1-64-64V256a64 64 0 0 1 64-64z m315.2 506.944l-152.96 161.024c-12.928 13.589333-3.285333 36.032 15.445333 36.032h305.962667c18.730667 0 28.373333-22.442667 15.466667-36.032l-152.981334-161.024a21.333333 21.333333 0 0 0-30.933333 0zM753.301333 399.573333a32 32 0 1 0-55.936-31.082666L618.666667 510.122667l-78.698667-141.653334A32 32 0 0 0 512 352H298.666667a32 32 0 0 0 0 64h64V554.666667a32 32 0 0 0 64 0v-138.666667h66.496l78.890666 141.973333c20.309333 36.565333 72.917333 36.565333 93.226667 0l88.021333-158.442666z" p-id="12640"></path></svg>