<svg t="1759313356160" class="icon" viewBox="0 0 1024 1024" version="1.1" xmlns="http://www.w3.org/2000/svg" p-id="14053" width="200" height="200">
  <path d="M1047.97937952 881.20481627c-8.19890193 0-16.20713172-3.24142634-22.30864012-9.53360686L561.76542799 385.07591358c-13.15637753-13.72839391-30.88888633-21.35527943-49.76542799-21.35527943-19.06721379 0-36.79972261 7.62688551-49.76542799 21.35527943L-1.86141152 871.67120941c-11.63100043 12.20301682-31.07955847 12.77503323-43.47324748 0.95336066s-12.77503323-31.07955847-0.95336065-43.4732474l463.90531139-486.59529582c24.78737793-26.12208286 58.34567419-40.42249322 94.38270826-40.42249325s69.40465819 14.30041034 94.38270826 40.42249325L1070.28801965 829.15132267c11.63100043 12.20301682 11.24965614 31.65157489-0.95336065 43.4732474-6.10150842 5.72016414-13.72839391 8.5802462-21.35527948 8.5802462z" p-id="14054"/>
  <path d="M1047.97937952 202.60267764H-23.97937952c-16.96982027 0-30.6982142-13.72839391-30.6982142-30.69821416s13.72839391-30.6982142 30.6982142-30.69821422h1071.95875904c16.96982027 0 30.6982142 13.72839391 30.6982142 30.69821422s-13.72839391 30.6982142-30.6982142 30.69821416z" p-id="14055"/>
</svg>
