<?xml version="1.0" standalone="no"?><!DOCTYPE svg PUBLIC "-//W3C//DTD SVG 1.1//EN" "http://www.w3.org/Graphics/SVG/1.1/DTD/svg11.dtd"><svg t="1739861083009" class="icon" viewBox="0 0 1024 1024" version="1.1" xmlns="http://www.w3.org/2000/svg" p-id="19423" xmlns:xlink="http://www.w3.org/1999/xlink" width="200" height="200"><path d="M341.333333 887.466667H128c-42.666667 0-76.8-34.133333-76.8-76.8V213.333333C51.2 170.666667 85.333333 136.533333 128 136.533333h768c42.666667 0 76.8 34.133333 76.8 76.8v128c0 17.066667-17.066667 34.133333-34.133333 34.133334s-34.133333-17.066667-34.133334-34.133334V213.333333c0-4.266667-4.266667-8.533333-8.533333-8.533333H128c-4.266667 0-8.533333 4.266667-8.533333 8.533333v597.333334c0 4.266667 4.266667 8.533333 8.533333 8.533333h213.333333c17.066667 0 34.133333 17.066667 34.133334 34.133333s-17.066667 34.133333-34.133334 34.133334z" fill="#333333" p-id="19424"></path><path d="M896 887.466667h-341.333333c-42.666667 0-76.8-34.133333-76.8-76.8v-256c0-42.666667 34.133333-76.8 76.8-76.8h341.333333c42.666667 0 76.8 34.133333 76.8 76.8v256c0 42.666667-34.133333 76.8-76.8 76.8z m-341.333333-341.333334c-4.266667 0-8.533333 4.266667-8.533334 8.533334v256c0 4.266667 4.266667 8.533333 8.533334 8.533333h341.333333c4.266667 0 8.533333-4.266667 8.533333-8.533333v-256c0-4.266667-4.266667-8.533333-8.533333-8.533334h-341.333333z" fill="#333333" p-id="19425"></path></svg>