<?xml version="1.0" standalone="no"?><!DOCTYPE svg PUBLIC "-//W3C//DTD SVG 1.1//EN" "http://www.w3.org/Graphics/SVG/1.1/DTD/svg11.dtd"><svg t="1733516630323" class="icon" viewBox="0 0 1024 1024" version="1.1" xmlns="http://www.w3.org/2000/svg" p-id="13723" xmlns:xlink="http://www.w3.org/1999/xlink" width="200" height="200"><path d="M732.280471 665.840941a30.117647 30.117647 0 0 1 22.407529 50.236235l-220.461176 245.037177a30.117647 30.117647 0 0 1-44.815059 0l-220.461177-245.037177a30.117647 30.117647 0 0 1 22.347294-50.236235z m-199.981177-601.750588a30.117647 30.117647 0 0 1 2.288941 2.168471l220.461177 245.037176a30.117647 30.117647 0 0 1-22.347294 50.236235H291.719529a30.117647 30.117647 0 0 1-22.407529-50.236235L489.712941 66.258824a30.117647 30.117647 0 0 1 42.586353-2.228706z" fill="#000000" p-id="13724"></path></svg>